<svg width="164" height="164" viewBox="0 0 164 164" fill="none" xmlns="http://www.w3.org/2000/svg">
<g opacity="0.1" clip-path="url(#clip0_1_34)">
<path d="M82 13.6667C44.28 13.6667 13.6667 44.28 13.6667 82C13.6667 119.72 44.28 150.333 82 150.333C119.72 150.333 150.333 119.72 150.333 82C150.333 44.28 119.72 13.6667 82 13.6667ZM82 136.667C51.865 136.667 27.3334 112.135 27.3334 82C27.3334 51.865 51.865 27.3333 82 27.3333C112.135 27.3333 136.667 51.865 136.667 82C136.667 112.135 112.135 136.667 82 136.667ZM113.365 51.7967L68.3334 96.8283L50.635 79.1983L41 88.8333L68.3334 116.167L123 61.5L113.365 51.7967Z" fill="#444444"/>
</g>
<defs>
<clipPath id="clip0_1_34">
<rect width="164" height="164" fill="white"/>
</clipPath>
</defs>
</svg>
