<svg width="164" height="164" viewBox="0 0 164 164" fill="none" xmlns="http://www.w3.org/2000/svg">
<g opacity="0.1" clip-path="url(#clip0_1_16)">
<path d="M68.3334 112.75L109.333 82L68.3334 51.25V112.75ZM82.0001 13.6667C44.2801 13.6667 13.6667 44.28 13.6667 82C13.6667 119.72 44.2801 150.333 82.0001 150.333C119.72 150.333 150.333 119.72 150.333 82C150.333 44.28 119.72 13.6667 82.0001 13.6667ZM82.0001 136.667C51.8651 136.667 27.3334 112.135 27.3334 82C27.3334 51.865 51.8651 27.3333 82.0001 27.3333C112.135 27.3333 136.667 51.865 136.667 82C136.667 112.135 112.135 136.667 82.0001 136.667Z" fill="#323232"/>
</g>
<defs>
<clipPath id="clip0_1_16">
<rect width="164" height="164" fill="white"/>
</clipPath>
</defs>
</svg>
